<mxfile host="drawio-plugin" modified="2022-05-04T09:46:51.909Z" agent="5.0 (Windows NT 6.2; Win64; x64) AppleWebKit/537.36 (KHTML, like Gecko) Chrome/89.0.4389.114 Safari/537.36" etag="nlMFyYqwgGOlzVTXnkxn" version="15.5.4" type="embed" pages="2"><diagram id="GXxu1I1fXlMjUlktSYLD" name="Designer"><mxGraphModel dx="616" dy="426" grid="1" gridSize="10" guides="1" tooltips="1" connect="1" arrows="1" fold="1" page="1" pageScale="1" pageWidth="827" pageHeight="1169" math="0" shadow="0"><root><mxCell id="0"/><mxCell id="1" parent="0"/><mxCell id="NNXiwCYhRCMmsIzPx8DH-1" value="" style="whiteSpace=wrap;html=1;aspect=fixed;" parent="1" vertex="1"><mxGeometry x="140" y="10" width="440" height="440" as="geometry"/></mxCell><mxCell id="NNXiwCYhRCMmsIzPx8DH-2" value="" style="rounded=0;whiteSpace=wrap;html=1;fillColor=#dae8fc;strokeColor=#6c8ebf;" parent="1" vertex="1"><mxGeometry x="140" y="10" width="440" height="60" as="geometry"/></mxCell><mxCell id="NNXiwCYhRCMmsIzPx8DH-3" value="FOGs fabuløse carport designer" style="text;html=1;strokeColor=none;fillColor=none;align=center;verticalAlign=middle;whiteSpace=wrap;rounded=0;" parent="1" vertex="1"><mxGeometry x="260" y="25" width="200" height="30" as="geometry"/></mxCell><mxCell id="NNXiwCYhRCMmsIzPx8DH-4" value="" style="rounded=0;whiteSpace=wrap;html=1;fontSize=13;" parent="1" vertex="1"><mxGeometry x="220" y="100" width="330" height="30" as="geometry"/></mxCell><mxCell id="NNXiwCYhRCMmsIzPx8DH-5" value="Carport længde" style="text;html=1;strokeColor=none;fillColor=none;align=center;verticalAlign=middle;whiteSpace=wrap;rounded=0;fontSize=13;" parent="1" vertex="1"><mxGeometry x="150" y="100" width="60" height="30" as="geometry"/></mxCell><mxCell id="NNXiwCYhRCMmsIzPx8DH-6" value="" style="rounded=0;whiteSpace=wrap;html=1;fontSize=13;" parent="1" vertex="1"><mxGeometry x="220" y="150" width="330" height="30" as="geometry"/></mxCell><mxCell id="NNXiwCYhRCMmsIzPx8DH-7" value="" style="rounded=0;whiteSpace=wrap;html=1;fontSize=13;" parent="1" vertex="1"><mxGeometry x="220" y="350" width="330" height="30" as="geometry"/></mxCell><mxCell id="NNXiwCYhRCMmsIzPx8DH-9" value="" style="rounded=0;whiteSpace=wrap;html=1;fontSize=13;" parent="1" vertex="1"><mxGeometry x="220" y="300" width="330" height="30" as="geometry"/></mxCell><mxCell id="NNXiwCYhRCMmsIzPx8DH-10" value="" style="rounded=0;whiteSpace=wrap;html=1;fontSize=13;" parent="1" vertex="1"><mxGeometry x="220" y="250" width="330" height="30" as="geometry"/></mxCell><mxCell id="NNXiwCYhRCMmsIzPx8DH-11" value="" style="rounded=0;whiteSpace=wrap;html=1;fontSize=13;" parent="1" vertex="1"><mxGeometry x="220" y="200" width="330" height="30" as="geometry"/></mxCell><mxCell id="NNXiwCYhRCMmsIzPx8DH-12" value="Carport bredde" style="text;html=1;strokeColor=none;fillColor=none;align=center;verticalAlign=middle;whiteSpace=wrap;rounded=0;fontSize=13;" parent="1" vertex="1"><mxGeometry x="150" y="150" width="60" height="30" as="geometry"/></mxCell><mxCell id="NNXiwCYhRCMmsIzPx8DH-13" value="Redskabs-skur længde" style="text;html=1;strokeColor=none;fillColor=none;align=center;verticalAlign=middle;whiteSpace=wrap;rounded=0;fontSize=13;" parent="1" vertex="1"><mxGeometry x="140" y="200" width="80" height="30" as="geometry"/></mxCell><mxCell id="NNXiwCYhRCMmsIzPx8DH-14" value="Redskabs-skur bredde&lt;span style=&quot;color: rgba(0 , 0 , 0 , 0) ; font-family: monospace ; font-size: 0px&quot;&gt;%3CmxGraphModel%3E%3Croot%3E%3CmxCell%20id%3D%220%22%2F%3E%3CmxCell%20id%3D%221%22%20parent%3D%220%22%2F%3E%3CmxCell%20id%3D%222%22%20value%3D%22Redskabs-skur%20l%C3%A6ngde%22%20style%3D%22text%3Bhtml%3D1%3BstrokeColor%3Dnone%3BfillColor%3Dnone%3Balign%3Dcenter%3BverticalAlign%3Dmiddle%3BwhiteSpace%3Dwrap%3Brounded%3D0%3BfontSize%3D13%3B%22%20vertex%3D%221%22%20parent%3D%221%22%3E%3CmxGeometry%20x%3D%22140%22%20y%3D%22200%22%20width%3D%2280%22%20height%3D%2230%22%20as%3D%22geometry%22%2F%3E%3C%2FmxCell%3E%3C%2Froot%3E%3C%2FmxGraphModel%3E&lt;/span&gt;" style="text;html=1;strokeColor=none;fillColor=none;align=center;verticalAlign=middle;whiteSpace=wrap;rounded=0;fontSize=13;" parent="1" vertex="1"><mxGeometry x="140" y="250" width="80" height="30" as="geometry"/></mxCell><mxCell id="NNXiwCYhRCMmsIzPx8DH-15" value="Vælg tag" style="text;html=1;strokeColor=none;fillColor=none;align=center;verticalAlign=middle;whiteSpace=wrap;rounded=0;fontSize=13;" parent="1" vertex="1"><mxGeometry x="140" y="300" width="80" height="30" as="geometry"/></mxCell><mxCell id="NNXiwCYhRCMmsIzPx8DH-16" value="Vælg beklædning" style="text;html=1;strokeColor=none;fillColor=none;align=center;verticalAlign=middle;whiteSpace=wrap;rounded=0;fontSize=13;" parent="1" vertex="1"><mxGeometry x="140" y="350" width="80" height="30" as="geometry"/></mxCell><mxCell id="NNXiwCYhRCMmsIzPx8DH-18" value="cm" style="text;html=1;strokeColor=none;fillColor=none;align=center;verticalAlign=middle;whiteSpace=wrap;rounded=0;fontSize=13;" parent="1" vertex="1"><mxGeometry x="370" y="100" width="60" height="30" as="geometry"/></mxCell><mxCell id="NNXiwCYhRCMmsIzPx8DH-19" value="cm" style="text;html=1;strokeColor=none;fillColor=none;align=center;verticalAlign=middle;whiteSpace=wrap;rounded=0;fontSize=13;" parent="1" vertex="1"><mxGeometry x="370" y="250" width="60" height="30" as="geometry"/></mxCell><mxCell id="NNXiwCYhRCMmsIzPx8DH-20" value="cm" style="text;html=1;strokeColor=none;fillColor=none;align=center;verticalAlign=middle;whiteSpace=wrap;rounded=0;fontSize=13;" parent="1" vertex="1"><mxGeometry x="370" y="200" width="60" height="30" as="geometry"/></mxCell><mxCell id="NNXiwCYhRCMmsIzPx8DH-21" value="cm" style="text;html=1;strokeColor=none;fillColor=none;align=center;verticalAlign=middle;whiteSpace=wrap;rounded=0;fontSize=13;" parent="1" vertex="1"><mxGeometry x="370" y="150" width="60" height="30" as="geometry"/></mxCell><mxCell id="NNXiwCYhRCMmsIzPx8DH-22" value="480" style="text;html=1;strokeColor=none;fillColor=none;align=center;verticalAlign=middle;whiteSpace=wrap;rounded=0;fontSize=13;" parent="1" vertex="1"><mxGeometry x="330" y="100" width="60" height="30" as="geometry"/></mxCell><mxCell id="NNXiwCYhRCMmsIzPx8DH-25" value="180" style="text;html=1;strokeColor=none;fillColor=none;align=center;verticalAlign=middle;whiteSpace=wrap;rounded=0;fontSize=13;" parent="1" vertex="1"><mxGeometry x="330" y="150" width="60" height="30" as="geometry"/></mxCell><mxCell id="NNXiwCYhRCMmsIzPx8DH-26" value="180" style="text;html=1;strokeColor=none;fillColor=none;align=center;verticalAlign=middle;whiteSpace=wrap;rounded=0;fontSize=13;" parent="1" vertex="1"><mxGeometry x="330" y="200" width="60" height="30" as="geometry"/></mxCell><mxCell id="NNXiwCYhRCMmsIzPx8DH-27" value="180" style="text;html=1;strokeColor=none;fillColor=none;align=center;verticalAlign=middle;whiteSpace=wrap;rounded=0;fontSize=13;" parent="1" vertex="1"><mxGeometry x="330" y="250" width="60" height="30" as="geometry"/></mxCell><mxCell id="NNXiwCYhRCMmsIzPx8DH-28" value="Eternit-tag" style="text;html=1;strokeColor=none;fillColor=none;align=center;verticalAlign=middle;whiteSpace=wrap;rounded=0;fontSize=13;" parent="1" vertex="1"><mxGeometry x="310" y="300" width="100" height="30" as="geometry"/></mxCell><mxCell id="NNXiwCYhRCMmsIzPx8DH-29" value="Egetræ" style="text;html=1;strokeColor=none;fillColor=none;align=center;verticalAlign=middle;whiteSpace=wrap;rounded=0;fontSize=13;" parent="1" vertex="1"><mxGeometry x="330" y="350" width="60" height="30" as="geometry"/></mxCell><mxCell id="NNXiwCYhRCMmsIzPx8DH-30" value="" style="triangle;whiteSpace=wrap;html=1;fontSize=13;direction=south;fillColor=#f5f5f5;fontColor=#333333;strokeColor=#666666;" parent="1" vertex="1"><mxGeometry x="520" y="205" width="30" height="20" as="geometry"/></mxCell><mxCell id="NNXiwCYhRCMmsIzPx8DH-31" value="" style="triangle;whiteSpace=wrap;html=1;fontSize=13;direction=south;fillColor=#f5f5f5;fontColor=#333333;strokeColor=#666666;" parent="1" vertex="1"><mxGeometry x="520" y="255" width="30" height="20" as="geometry"/></mxCell><mxCell id="NNXiwCYhRCMmsIzPx8DH-32" value="" style="triangle;whiteSpace=wrap;html=1;fontSize=13;direction=south;fillColor=#f5f5f5;fontColor=#333333;strokeColor=#666666;" parent="1" vertex="1"><mxGeometry x="520" y="305" width="30" height="20" as="geometry"/></mxCell><mxCell id="NNXiwCYhRCMmsIzPx8DH-33" value="" style="triangle;whiteSpace=wrap;html=1;fontSize=13;direction=south;fillColor=#f5f5f5;fontColor=#333333;strokeColor=#666666;" parent="1" vertex="1"><mxGeometry x="520" y="355" width="30" height="20" as="geometry"/></mxCell><mxCell id="NNXiwCYhRCMmsIzPx8DH-39" value="" style="triangle;whiteSpace=wrap;html=1;fontSize=13;direction=south;fillColor=#f5f5f5;fontColor=#333333;strokeColor=#666666;" parent="1" vertex="1"><mxGeometry x="520" y="155" width="30" height="20" as="geometry"/></mxCell><mxCell id="NNXiwCYhRCMmsIzPx8DH-40" value="" style="triangle;whiteSpace=wrap;html=1;fontSize=13;direction=south;fillColor=#f5f5f5;fontColor=#333333;strokeColor=#666666;" parent="1" vertex="1"><mxGeometry x="520" y="105" width="30" height="20" as="geometry"/></mxCell><mxCell id="NNXiwCYhRCMmsIzPx8DH-42" value="" style="rounded=0;whiteSpace=wrap;html=1;fontSize=13;fillColor=#d5e8d4;strokeColor=#82b366;" parent="1" vertex="1"><mxGeometry x="410" y="400" width="120" height="40" as="geometry"/></mxCell><mxCell id="NNXiwCYhRCMmsIzPx8DH-43" value="" style="rounded=0;whiteSpace=wrap;html=1;fontSize=13;fillColor=#f8cecc;strokeColor=#b85450;" parent="1" vertex="1"><mxGeometry x="480" y="25" width="80" height="30" as="geometry"/></mxCell><mxCell id="NNXiwCYhRCMmsIzPx8DH-44" value="Logud" style="text;html=1;strokeColor=none;fillColor=none;align=center;verticalAlign=middle;whiteSpace=wrap;rounded=0;fontSize=13;" parent="1" vertex="1"><mxGeometry x="490" y="25" width="60" height="30" as="geometry"/></mxCell><mxCell id="NNXiwCYhRCMmsIzPx8DH-45" value="Send forespørgsel" style="text;html=1;strokeColor=none;fillColor=none;align=center;verticalAlign=middle;whiteSpace=wrap;rounded=0;fontSize=13;" parent="1" vertex="1"><mxGeometry x="440" y="405" width="60" height="30" as="geometry"/></mxCell><mxCell id="NNXiwCYhRCMmsIzPx8DH-47" value="" style="rounded=0;whiteSpace=wrap;html=1;fontSize=13;fillColor=#d5e8d4;strokeColor=#82b366;" parent="1" vertex="1"><mxGeometry x="240" y="400" width="120" height="40" as="geometry"/></mxCell><mxCell id="NNXiwCYhRCMmsIzPx8DH-48" value="Se carport" style="text;html=1;strokeColor=none;fillColor=none;align=center;verticalAlign=middle;whiteSpace=wrap;rounded=0;fontSize=13;" parent="1" vertex="1"><mxGeometry x="270" y="405" width="60" height="30" as="geometry"/></mxCell></root></mxGraphModel></diagram><diagram id="UfOHcKk4ZfOeeXDhI_GC" name="Se carport"><mxGraphModel dx="616" dy="426" grid="1" gridSize="10" guides="1" tooltips="1" connect="1" arrows="1" fold="1" page="1" pageScale="1" pageWidth="827" pageHeight="1169" math="0" shadow="0"><root><mxCell id="0"/><mxCell id="1" parent="0"/><mxCell id="PNO33Cb6v2qzjT-C3VFT-1" value="" style="whiteSpace=wrap;html=1;aspect=fixed;" parent="1" vertex="1"><mxGeometry x="140" y="10" width="440" height="440" as="geometry"/></mxCell><mxCell id="Yo3Th9uO_8FPMghWQhbU-1" value="" style="rounded=0;whiteSpace=wrap;html=1;fillColor=#dae8fc;strokeColor=#6c8ebf;" parent="1" vertex="1"><mxGeometry x="140" y="10" width="440" height="60" as="geometry"/></mxCell><mxCell id="zBdUyMfQjDX5ZZZ1WqkK-1" value="FOGs fabuløse carport designer" style="text;html=1;strokeColor=none;fillColor=none;align=center;verticalAlign=middle;whiteSpace=wrap;rounded=0;" parent="1" vertex="1"><mxGeometry x="260" y="25" width="200" height="30" as="geometry"/></mxCell><mxCell id="xcOEEvIejNoijvpaGwTF-1" value="" style="rounded=0;whiteSpace=wrap;html=1;fontSize=13;fillColor=#f8cecc;strokeColor=#b85450;" parent="1" vertex="1"><mxGeometry x="480" y="25" width="80" height="30" as="geometry"/></mxCell><mxCell id="jrpX5SXShY0fCjebfbG0-1" value="Logud" style="text;html=1;strokeColor=none;fillColor=none;align=center;verticalAlign=middle;whiteSpace=wrap;rounded=0;fontSize=13;" parent="1" vertex="1"><mxGeometry x="490" y="25" width="60" height="30" as="geometry"/></mxCell><mxCell id="MjcgAx6HCa3cSgHSwGn7-1" value="" style="shape=cube;whiteSpace=wrap;html=1;boundedLbl=1;backgroundOutline=1;darkOpacity=0.05;darkOpacity2=0.1;fontSize=13;" parent="1" vertex="1"><mxGeometry x="240" y="155" width="240" height="170" as="geometry"/></mxCell><mxCell id="MjcgAx6HCa3cSgHSwGn7-7" value="" style="shape=mxgraph.signs.transportation.car_2;html=1;pointerEvents=1;fillColor=#000000;strokeColor=none;verticalLabelPosition=bottom;verticalAlign=top;align=center;fontSize=13;" parent="1" vertex="1"><mxGeometry x="339" y="275" width="150" height="50" as="geometry"/></mxCell><mxCell id="MjcgAx6HCa3cSgHSwGn7-4" value="480" style="text;html=1;strokeColor=none;fillColor=none;align=center;verticalAlign=middle;whiteSpace=wrap;rounded=0;fontSize=13;" parent="1" vertex="1"><mxGeometry x="330" y="325" width="60" height="30" as="geometry"/></mxCell><mxCell id="MjcgAx6HCa3cSgHSwGn7-5" value="180" style="text;html=1;strokeColor=none;fillColor=none;align=center;verticalAlign=middle;whiteSpace=wrap;rounded=0;fontSize=13;" parent="1" vertex="1"><mxGeometry x="190" y="310" width="60" height="30" as="geometry"/></mxCell><mxCell id="MjcgAx6HCa3cSgHSwGn7-9" value="" style="rounded=0;whiteSpace=wrap;html=1;fontSize=13;fillColor=#f5f5f5;fontColor=#333333;strokeColor=#666666;" parent="1" vertex="1"><mxGeometry x="260" y="175" width="80" height="150" as="geometry"/></mxCell><mxCell id="MjcgAx6HCa3cSgHSwGn7-10" value="" style="rounded=0;whiteSpace=wrap;html=1;fontSize=13;fillColor=#f5f5f5;fontColor=#333333;strokeColor=#666666;" parent="1" vertex="1"><mxGeometry x="390" y="175" width="10" height="150" as="geometry"/></mxCell><mxCell id="MjcgAx6HCa3cSgHSwGn7-11" value="" style="rounded=0;whiteSpace=wrap;html=1;fontSize=13;fillColor=#f5f5f5;fontColor=#333333;strokeColor=#666666;" parent="1" vertex="1"><mxGeometry x="420" y="175" width="10" height="150" as="geometry"/></mxCell><mxCell id="MjcgAx6HCa3cSgHSwGn7-12" value="" style="rounded=0;whiteSpace=wrap;html=1;fontSize=13;fillColor=#f5f5f5;fontColor=#333333;strokeColor=#666666;" parent="1" vertex="1"><mxGeometry x="450" y="175" width="10" height="150" as="geometry"/></mxCell><mxCell id="MjcgAx6HCa3cSgHSwGn7-13" value="" style="rounded=0;whiteSpace=wrap;html=1;fontSize=13;fillColor=#f5f5f5;fontColor=#333333;strokeColor=#666666;" parent="1" vertex="1"><mxGeometry x="360" y="175" width="10" height="150" as="geometry"/></mxCell><mxCell id="MjcgAx6HCa3cSgHSwGn7-16" value="" style="rounded=0;whiteSpace=wrap;html=1;fontSize=13;" parent="1" vertex="1"><mxGeometry x="280" y="260" width="30" height="65" as="geometry"/></mxCell><mxCell id="Owqq6lNN58vied2tI9KJ-1" value="" style="rounded=0;whiteSpace=wrap;html=1;fontSize=13;fillColor=#d5e8d4;strokeColor=#82b366;" parent="1" vertex="1"><mxGeometry x="210" y="400" width="120" height="40" as="geometry"/></mxCell><mxCell id="Owqq6lNN58vied2tI9KJ-2" value="" style="rounded=0;whiteSpace=wrap;html=1;fontSize=13;fillColor=#d5e8d4;strokeColor=#82b366;" parent="1" vertex="1"><mxGeometry x="395" y="400" width="120" height="40" as="geometry"/></mxCell><mxCell id="Owqq6lNN58vied2tI9KJ-3" value="Gå tilbage" style="text;html=1;strokeColor=none;fillColor=none;align=center;verticalAlign=middle;whiteSpace=wrap;rounded=0;fontSize=13;" parent="1" vertex="1"><mxGeometry x="240" y="405" width="60" height="30" as="geometry"/></mxCell><mxCell id="Owqq6lNN58vied2tI9KJ-4" value="Send forespørgsel" style="text;html=1;strokeColor=none;fillColor=none;align=center;verticalAlign=middle;whiteSpace=wrap;rounded=0;fontSize=13;" parent="1" vertex="1"><mxGeometry x="425" y="405" width="60" height="30" as="geometry"/></mxCell></root></mxGraphModel></diagram></mxfile>